<svg xmlns="http://www.w3.org/2000/svg" width="45.857" height="45.857" viewBox="0 0 45.857 45.857">
  <g id="Bookings" transform="translate(-105 -35)">
    <path id="Path_249" data-name="Path 249" d="M109.913,35h11.464a5.278,5.278,0,0,1,4.913,4.913V51.378a4.913,4.913,0,0,1-4.913,4.913H109.913A5.278,5.278,0,0,1,105,51.378V39.913A4.913,4.913,0,0,1,109.913,35Z" fill="#fff"/>
    <path id="Path_250" data-name="Path 250" d="M372.413,35h11.464a5.278,5.278,0,0,1,4.913,4.913V51.378a4.913,4.913,0,0,1-4.913,4.913H372.413a5.278,5.278,0,0,1-4.913-4.913V39.913A4.913,4.913,0,0,1,372.413,35Z" transform="translate(-237.934)" fill="#fff"/>
    <path id="Path_251" data-name="Path 251" d="M109.913,297.5h11.464a5.278,5.278,0,0,1,4.913,4.913v11.464a4.913,4.913,0,0,1-4.913,4.913H109.913A5.278,5.278,0,0,1,105,313.878V302.413A4.913,4.913,0,0,1,109.913,297.5Z" transform="translate(0 -237.934)" fill="#fff"/>
    <path id="Path_252" data-name="Path 252" d="M372.413,297.5h11.464a5.278,5.278,0,0,1,4.913,4.913v11.464a4.913,4.913,0,0,1-4.913,4.913H372.413a5.278,5.278,0,0,1-4.913-4.913V302.413A4.913,4.913,0,0,1,372.413,297.5Z" transform="translate(-237.934 -237.934)" fill="#fff"/>
  </g>
</svg>
