<svg xmlns="http://www.w3.org/2000/svg" width="45.789" height="45.789" viewBox="0 0 45.789 45.789">
  <g id="Followers" transform="translate(-122.495 -52.5)">
    <path id="Path_154" data-name="Path 154" d="M261.339,52.5H235.186a4.367,4.367,0,0,0-4.368,4.367V83.02a4.367,4.367,0,0,0,4.368,4.368h26.153a4.367,4.367,0,0,0,4.367-4.368V56.867a4.367,4.367,0,0,0-4.367-4.367Zm-4.262,19.2h-7.044V78.74a1.761,1.761,0,1,1-3.522,0V71.7h-7.044a1.761,1.761,0,1,1,0-3.522h7.044V61.129a1.761,1.761,0,1,1,3.522,0v7.044h7.044a1.761,1.761,0,1,1,0,3.522Z" transform="translate(-97.422)" fill="#fff"/>
    <path id="Path_155" data-name="Path 155" d="M129.874,180.439V160.82h-3.012a4.367,4.367,0,0,0-4.367,4.368v26.153a4.367,4.367,0,0,0,4.367,4.367h26.153a4.367,4.367,0,0,0,4.368-4.367v-3.012H137.764a7.908,7.908,0,0,1-7.89-7.89Z" transform="translate(0 -97.419)" fill="#fff"/>
  </g>
</svg>
