<svg xmlns="http://www.w3.org/2000/svg" width="23.592" height="24.002" viewBox="0 0 23.592 24.002">
  <g id="Server_payment_for_April" data-name="Server payment for April" transform="translate(-190.377 -110.878)">
    <path id="Path_292" data-name="Path 292" d="M213.925,116.465l-2.069-5.214a.586.586,0,0,0-.579-.372H193.068a.649.649,0,0,0-.579.372l-2.069,5.214a.581.581,0,0,0,.083.579.632.632,0,0,0,.5.29h8.732a.629.629,0,0,0,.621-.579l.041-.248h3.6l.041.248a.629.629,0,0,0,.621.579h8.691a.5.5,0,0,0,.5-.29.58.58,0,0,0,.083-.579Zm-14.773-.372h-7.242l1.573-3.973h6.042Zm6.042,0-.372-3.973h6.042l1.573,3.973Zm8.152,0H191a.636.636,0,0,0-.621.621v17.546a.636.636,0,0,0,.621.621h22.346a.636.636,0,0,0,.621-.621V116.713A.609.609,0,0,0,213.345,116.092Zm-.621,17.546h-21.1v-16.3h7.532v10.387l3.021-2.069,3.021,2.069V117.334h7.532Z" fill="#fff"/>
  </g>
</svg>
