<svg xmlns="http://www.w3.org/2000/svg" width="18.634" height="24.846" viewBox="0 0 18.634 24.846">
  <g id="new_card_added_for_order" data-name="new card added for order" transform="translate(-166.252 -35)">
    <path id="Path_105" data-name="Path 105" d="M182.224,37.024h-.7A2.9,2.9,0,0,0,178.771,35h-6.406a2.893,2.893,0,0,0-2.749,2.024h-.7a2.665,2.665,0,0,0-2.662,2.662v17.5a2.665,2.665,0,0,0,2.662,2.662h13.31a2.665,2.665,0,0,0,2.662-2.662v-17.5a2.665,2.665,0,0,0-2.662-2.662Zm.887,20.159a.888.888,0,0,1-.887.887h-13.31a.888.888,0,0,1-.887-.887v-17.5a.889.889,0,0,1,.887-.887h.7a2.9,2.9,0,0,0,2.752,2.024h6.406A2.892,2.892,0,0,0,181.52,38.8h.7a.888.888,0,0,1,.887.887ZM171.238,37.9a1.129,1.129,0,0,1,1.128-1.128h6.406a1.136,1.136,0,0,1,0,2.272h-6.406A1.132,1.132,0,0,1,171.238,37.9Z" fill="#fff"/>
    <path id="Path_106" data-name="Path 106" d="M347.487,290.82h-4.215a.887.887,0,0,0,0,1.775h4.215a.887.887,0,0,0,0-1.775Z" transform="translate(-167.202 -242.849)" fill="#fff"/>
    <path id="Path_107" data-name="Path 107" d="M347.487,394.59h-4.215a.887.887,0,0,0,0,1.775h4.215a.887.887,0,0,0,0-1.775Z" transform="translate(-167.202 -341.357)" fill="#fff"/>
    <path id="Path_108" data-name="Path 108" d="M347.487,187.04h-4.215a.887.887,0,0,0,0,1.775h4.215a.887.887,0,0,0,0-1.775Z" transform="translate(-167.202 -144.331)" fill="#fff"/>
    <path id="Path_109" data-name="Path 109" d="M242.4,170.574l-1.069,1.069-.338-.338a.887.887,0,0,0-1.255,1.255l.965.965a.887.887,0,0,0,1.255,0l1.7-1.7a.887.887,0,1,0-1.255-1.255Z" transform="translate(-69.512 -128.453)" fill="#fff"/>
    <path id="Path_110" data-name="Path 110" d="M242.4,274.34l-1.069,1.069-.338-.338a.887.887,0,1,0-1.255,1.255l.965.965a.887.887,0,0,0,1.255,0l1.7-1.7a.887.887,0,1,0-1.255-1.255Z" transform="translate(-69.512 -226.957)" fill="#fff"/>
    <path id="Path_111" data-name="Path 111" d="M266.892,394.59h-.009a.892.892,0,1,0,.009,0Z" transform="translate(-94.69 -341.357)" fill="#fff"/>
  </g>
</svg>
