<svg xmlns="http://www.w3.org/2000/svg" width="21.508" height="24.645" viewBox="0 0 21.508 24.645">
  <g id="Design_Changes_Alarm_" data-name="Design Changes (Alarm)" transform="translate(-215.6 -125.997)">
    <path id="Path_253" data-name="Path 253" d="M224.338,128.939a8.067,8.067,0,0,0-6.049,7.811v5.377a.9.9,0,0,1-.9.9,1.792,1.792,0,1,0,0,3.585h17.915a1.792,1.792,0,1,0,0-3.585.894.894,0,0,1-.9-.9v-5.377a8.068,8.068,0,0,0-6.049-7.811v-.926a2.016,2.016,0,1,0-4.033,0Zm-1.12,18.566h6.273a3.137,3.137,0,1,1-6.273,0Z" fill="#fff" fill-rule="evenodd"/>
  </g>
</svg>
